<svg width="67" height="19" viewBox="0 0 67 19" fill="none" xmlns="http://www.w3.org/2000/svg">
<path d="M30.0625 15H28.5547V9.74219H22.8203V15H21.3203V3.625H22.8203V8.51562H28.5547V3.625H30.0625V15ZM37.7188 15C37.6354 14.8333 37.5677 14.5365 37.5156 14.1094C36.8438 14.8073 36.0417 15.1562 35.1094 15.1562C34.276 15.1562 33.5911 14.9219 33.0547 14.4531C32.5234 13.9792 32.2578 13.3802 32.2578 12.6562C32.2578 11.776 32.5911 11.0938 33.2578 10.6094C33.9297 10.1198 34.8724 9.875 36.0859 9.875H37.4922V9.21094C37.4922 8.70573 37.3411 8.30469 37.0391 8.00781C36.737 7.70573 36.2917 7.55469 35.7031 7.55469C35.1875 7.55469 34.7552 7.6849 34.4062 7.94531C34.0573 8.20573 33.8828 8.52083 33.8828 8.89062H32.4297C32.4297 8.46875 32.5781 8.0625 32.875 7.67188C33.1771 7.27604 33.5833 6.96354 34.0938 6.73438C34.6094 6.50521 35.1745 6.39062 35.7891 6.39062C36.763 6.39062 37.526 6.63542 38.0781 7.125C38.6302 7.60938 38.9167 8.27865 38.9375 9.13281V13.0234C38.9375 13.7995 39.0365 14.4167 39.2344 14.875V15H37.7188ZM35.3203 13.8984C35.7734 13.8984 36.2031 13.7812 36.6094 13.5469C37.0156 13.3125 37.3099 13.0078 37.4922 12.6328V10.8984H36.3594C34.5885 10.8984 33.7031 11.4167 33.7031 12.4531C33.7031 12.9062 33.8542 13.2604 34.1562 13.5156C34.4583 13.7708 34.8464 13.8984 35.3203 13.8984ZM46.6719 6.54688H48.1172V15H46.6719V8.83594L42.7734 15H41.3281V6.54688H42.7734V12.7188L46.6719 6.54688ZM47.0625 3.46875C47.0625 4.09896 46.8464 4.60677 46.4141 4.99219C45.987 5.3724 45.4245 5.5625 44.7266 5.5625C44.0286 5.5625 43.4635 5.36979 43.0312 4.98438C42.599 4.59896 42.3828 4.09375 42.3828 3.46875H43.5625C43.5625 3.83333 43.6615 4.11979 43.8594 4.32812C44.0573 4.53125 44.3464 4.63281 44.7266 4.63281C45.0911 4.63281 45.375 4.53125 45.5781 4.32812C45.7865 4.125 45.8906 3.83854 45.8906 3.46875H47.0625ZM56.7188 7.71875H53.8828V15H52.4375V7.71875H49.6562V6.54688H56.7188V7.71875ZM63.5938 6.54688H65.0391V15H63.5938V8.83594L59.6953 15H58.25V6.54688H59.6953V12.7188L63.5938 6.54688Z" fill="white"/>
<g clip-path="url(#clip0)">
<path d="M14.6506 16.0012L10.0862 11.4368C10.9465 10.4335 11.4706 9.13293 11.4706 7.71058C11.4706 4.54822 8.89765 1.97528 5.7353 1.97528C4.20353 1.97528 2.76265 2.57175 1.67824 3.6544C0.595589 4.73793 -0.000881376 6.17881 9.77541e-07 7.71058C9.77541e-07 10.8729 2.57294 13.4459 5.7353 13.4459C7.15765 13.4459 8.45912 12.9218 9.46235 12.0615L14.0268 16.6259L14.6506 16.0012ZM5.7353 12.5635C3.06 12.5635 0.882354 10.3868 0.882354 7.71058C0.881472 6.41352 1.38618 5.19499 2.30294 4.2791C3.21882 3.36234 4.43824 2.85763 5.7353 2.85763C8.41059 2.85763 10.5882 5.0344 10.5882 7.71058C10.5882 10.3859 8.41059 12.5635 5.7353 12.5635Z" fill="white"/>
</g>
<defs>
<clipPath id="clip0">
<rect width="15" height="15" fill="white" transform="translate(0 2)"/>
</clipPath>
</defs>
</svg>
